<?xml version="1.0" standalone="no"?>
<svg viewBox="0 0 200 200" xmlns="http://www.w3.org/2000/svg">
  <path fill="#2E78C8" d="M31,-47.7C42.5,-40.9,55.7,-36.2,61.9,-27C68,-17.8,67.1,-4.2,62.7,7.2C58.2,18.6,50.3,27.6,43.6,41C37,54.4,31.7,72.2,21.2,77.7C10.7,83.3,-4.9,76.6,-17.7,68.9C-30.5,61.2,-40.5,52.5,-48.3,42.4C-56.2,32.4,-62,21.1,-62.7,9.6C-63.4,-1.8,-58.9,-13.3,-55.8,-27.7C-52.6,-42,-50.9,-59.2,-41.8,-67.1C-32.7,-75,-16.4,-73.6,-3.3,-68.5C9.8,-63.4,19.5,-54.5,31,-47.7Z" transform="translate(100 100)" />
</svg>
